<?xml version="1.0" encoding="UTF-8" standalone="no"?>
<!DOCTYPE svg PUBLIC "-//W3C//DTD SVG 1.1//EN"
 "http://www.w3.org/Graphics/SVG/1.1/DTD/svg11.dtd">
<!-- Generated by graphviz version 14.1.2 (20260124.0452)
 -->
<!-- Title: model Pages: 1 -->
<svg width="193pt" height="864pt"
 viewBox="0.00 0.00 193.00 864.00" xmlns="http://www.w3.org/2000/svg" xmlns:xlink="http://www.w3.org/1999/xlink">
<g id="graph0" class="graph" transform="scale(0.947109 0.947109) rotate(0) translate(4 908.25)">
<title>model</title>
<polygon fill="white" stroke="none" points="-4,4 -4,-908.25 200,-908.25 200,4 -4,4"/>
<g id="clust1" class="cluster">
<title>cluster_2</title>
<polygon fill="none" stroke="black" stroke-dasharray="5,2" points="8,-8 8,-863.75 188,-863.75 188,-8 8,-8"/>
<text xml:space="preserve" text-anchor="middle" x="40.75" y="-848.35" font-family="Times,serif" font-size="12.00">Sequential</text>
</g>
<!-- 0 -->
<g id="node1" class="node">
<title>0</title>
<polygon fill="lightyellow" stroke="none" points="166.5,-904.25 29.5,-904.25 29.5,-871.75 166.5,-871.75 166.5,-904.25"/>
<polygon fill="none" stroke="black" points="29.5,-871.75 29.5,-904.25 90.5,-904.25 90.5,-871.75 29.5,-871.75"/>
<text xml:space="preserve" text-anchor="start" x="34.5" y="-889.75" font-family="Linux libertine" font-size="10.00">input&#45;tensor</text>
<text xml:space="preserve" text-anchor="start" x="43.88" y="-878.5" font-family="Linux libertine" font-size="10.00">depth:0</text>
<polygon fill="none" stroke="black" points="90.5,-871.75 90.5,-904.25 166.5,-904.25 166.5,-871.75 90.5,-871.75"/>
<text xml:space="preserve" text-anchor="start" x="95.5" y="-884.12" font-family="Linux libertine" font-size="10.00">(1, 1, 128, 128)</text>
</g>
<!-- 1 -->
<g id="node2" class="node">
<title>1</title>
<polygon fill="#c1ffc1" stroke="none" points="180.12,-833.5 15.88,-833.5 15.88,-791 180.12,-791 180.12,-833.5"/>
<polygon fill="none" stroke="black" points="15.88,-791 15.88,-833.5 58.12,-833.5 58.12,-791 15.88,-791"/>
<text xml:space="preserve" text-anchor="start" x="22" y="-814" font-family="Linux libertine" font-size="10.00">Flatten</text>
<text xml:space="preserve" text-anchor="start" x="20.88" y="-802.75" font-family="Linux libertine" font-size="10.00">depth:2</text>
<polygon fill="none" stroke="black" points="58.12,-812.25 58.12,-833.5 101.12,-833.5 101.12,-812.25 58.12,-812.25"/>
<text xml:space="preserve" text-anchor="start" x="67.62" y="-819" font-family="Linux libertine" font-size="10.00">input:</text>
<polygon fill="none" stroke="black" points="101.12,-812.25 101.12,-833.5 180.12,-833.5 180.12,-812.25 101.12,-812.25"/>
<text xml:space="preserve" text-anchor="start" x="106.12" y="-819" font-family="Linux libertine" font-size="10.00">(1, 1, 128, 128) </text>
<polygon fill="none" stroke="black" points="58.12,-791 58.12,-812.25 101.12,-812.25 101.12,-791 58.12,-791"/>
<text xml:space="preserve" text-anchor="start" x="63.12" y="-797.75" font-family="Linux libertine" font-size="10.00">output: </text>
<polygon fill="none" stroke="black" points="101.12,-791 101.12,-812.25 180.12,-812.25 180.12,-791 101.12,-791"/>
<text xml:space="preserve" text-anchor="start" x="117.38" y="-797.75" font-family="Linux libertine" font-size="10.00">(1, 16384) </text>
</g>
<!-- 0&#45;&gt;1 -->
<g id="edge1" class="edge">
<title>0&#45;&gt;1</title>
<path fill="none" stroke="black" d="M98,-872.08C98,-864.26 98,-854.38 98,-844.96"/>
<polygon fill="black" stroke="black" points="101.5,-844.98 98,-834.98 94.5,-844.98 101.5,-844.98"/>
</g>
<!-- 2 -->
<g id="node3" class="node">
<title>2</title>
<polygon fill="#c1ffc1" stroke="none" points="168.88,-755 27.12,-755 27.12,-712.5 168.88,-712.5 168.88,-755"/>
<polygon fill="none" stroke="black" points="27.12,-712.5 27.12,-755 69.38,-755 69.38,-712.5 27.12,-712.5"/>
<text xml:space="preserve" text-anchor="start" x="35.12" y="-735.5" font-family="Linux libertine" font-size="10.00">Linear</text>
<text xml:space="preserve" text-anchor="start" x="32.12" y="-724.25" font-family="Linux libertine" font-size="10.00">depth:2</text>
<polygon fill="none" stroke="black" points="69.38,-733.75 69.38,-755 112.38,-755 112.38,-733.75 69.38,-733.75"/>
<text xml:space="preserve" text-anchor="start" x="78.88" y="-740.5" font-family="Linux libertine" font-size="10.00">input:</text>
<polygon fill="none" stroke="black" points="112.38,-733.75 112.38,-755 168.88,-755 168.88,-733.75 112.38,-733.75"/>
<text xml:space="preserve" text-anchor="start" x="117.38" y="-740.5" font-family="Linux libertine" font-size="10.00">(1, 16384) </text>
<polygon fill="none" stroke="black" points="69.38,-712.5 69.38,-733.75 112.38,-733.75 112.38,-712.5 69.38,-712.5"/>
<text xml:space="preserve" text-anchor="start" x="74.38" y="-719.25" font-family="Linux libertine" font-size="10.00">output: </text>
<polygon fill="none" stroke="black" points="112.38,-712.5 112.38,-733.75 168.88,-733.75 168.88,-712.5 112.38,-712.5"/>
<text xml:space="preserve" text-anchor="start" x="122.62" y="-719.25" font-family="Linux libertine" font-size="10.00">(1, 512) </text>
</g>
<!-- 1&#45;&gt;2 -->
<g id="edge2" class="edge">
<title>1&#45;&gt;2</title>
<path fill="none" stroke="black" d="M98,-791.15C98,-783.57 98,-774.75 98,-766.36"/>
<polygon fill="black" stroke="black" points="101.5,-766.49 98,-756.49 94.5,-766.49 101.5,-766.49"/>
</g>
<!-- 3 -->
<g id="node4" class="node">
<title>3</title>
<polygon fill="#c1ffc1" stroke="none" points="177.5,-676.5 18.5,-676.5 18.5,-634 177.5,-634 177.5,-676.5"/>
<polygon fill="none" stroke="black" points="18.5,-634 18.5,-676.5 88.5,-676.5 88.5,-634 18.5,-634"/>
<text xml:space="preserve" text-anchor="start" x="23.5" y="-657" font-family="Linux libertine" font-size="10.00">BatchNorm1d</text>
<text xml:space="preserve" text-anchor="start" x="37.38" y="-645.75" font-family="Linux libertine" font-size="10.00">depth:2</text>
<polygon fill="none" stroke="black" points="88.5,-655.25 88.5,-676.5 131.5,-676.5 131.5,-655.25 88.5,-655.25"/>
<text xml:space="preserve" text-anchor="start" x="98" y="-662" font-family="Linux libertine" font-size="10.00">input:</text>
<polygon fill="none" stroke="black" points="131.5,-655.25 131.5,-676.5 177.5,-676.5 177.5,-655.25 131.5,-655.25"/>
<text xml:space="preserve" text-anchor="start" x="136.5" y="-662" font-family="Linux libertine" font-size="10.00">(1, 512) </text>
<polygon fill="none" stroke="black" points="88.5,-634 88.5,-655.25 131.5,-655.25 131.5,-634 88.5,-634"/>
<text xml:space="preserve" text-anchor="start" x="93.5" y="-640.75" font-family="Linux libertine" font-size="10.00">output: </text>
<polygon fill="none" stroke="black" points="131.5,-634 131.5,-655.25 177.5,-655.25 177.5,-634 131.5,-634"/>
<text xml:space="preserve" text-anchor="start" x="136.5" y="-640.75" font-family="Linux libertine" font-size="10.00">(1, 512) </text>
</g>
<!-- 2&#45;&gt;3 -->
<g id="edge3" class="edge">
<title>2&#45;&gt;3</title>
<path fill="none" stroke="black" d="M98,-712.65C98,-705.07 98,-696.25 98,-687.86"/>
<polygon fill="black" stroke="black" points="101.5,-687.99 98,-677.99 94.5,-687.99 101.5,-687.99"/>
</g>
<!-- 4 -->
<g id="node5" class="node">
<title>4</title>
<polygon fill="#c1ffc1" stroke="none" points="163.62,-598 32.38,-598 32.38,-555.5 163.62,-555.5 163.62,-598"/>
<polygon fill="none" stroke="black" points="32.38,-555.5 32.38,-598 74.62,-598 74.62,-555.5 32.38,-555.5"/>
<text xml:space="preserve" text-anchor="start" x="40.75" y="-578.5" font-family="Linux libertine" font-size="10.00">ReLU</text>
<text xml:space="preserve" text-anchor="start" x="37.38" y="-567.25" font-family="Linux libertine" font-size="10.00">depth:2</text>
<polygon fill="none" stroke="black" points="74.62,-576.75 74.62,-598 117.62,-598 117.62,-576.75 74.62,-576.75"/>
<text xml:space="preserve" text-anchor="start" x="84.12" y="-583.5" font-family="Linux libertine" font-size="10.00">input:</text>
<polygon fill="none" stroke="black" points="117.62,-576.75 117.62,-598 163.62,-598 163.62,-576.75 117.62,-576.75"/>
<text xml:space="preserve" text-anchor="start" x="122.62" y="-583.5" font-family="Linux libertine" font-size="10.00">(1, 512) </text>
<polygon fill="none" stroke="black" points="74.62,-555.5 74.62,-576.75 117.62,-576.75 117.62,-555.5 74.62,-555.5"/>
<text xml:space="preserve" text-anchor="start" x="79.62" y="-562.25" font-family="Linux libertine" font-size="10.00">output: </text>
<polygon fill="none" stroke="black" points="117.62,-555.5 117.62,-576.75 163.62,-576.75 163.62,-555.5 117.62,-555.5"/>
<text xml:space="preserve" text-anchor="start" x="122.62" y="-562.25" font-family="Linux libertine" font-size="10.00">(1, 512) </text>
</g>
<!-- 3&#45;&gt;4 -->
<g id="edge4" class="edge">
<title>3&#45;&gt;4</title>
<path fill="none" stroke="black" d="M98,-634.15C98,-626.57 98,-617.75 98,-609.36"/>
<polygon fill="black" stroke="black" points="101.5,-609.49 98,-599.49 94.5,-609.49 101.5,-609.49"/>
</g>
<!-- 5 -->
<g id="node6" class="node">
<title>5</title>
<polygon fill="#c1ffc1" stroke="none" points="164.75,-519.5 31.25,-519.5 31.25,-477 164.75,-477 164.75,-519.5"/>
<polygon fill="none" stroke="black" points="31.25,-477 31.25,-519.5 75.75,-519.5 75.75,-477 31.25,-477"/>
<text xml:space="preserve" text-anchor="start" x="36.25" y="-500" font-family="Linux libertine" font-size="10.00">Dropout</text>
<text xml:space="preserve" text-anchor="start" x="37.38" y="-488.75" font-family="Linux libertine" font-size="10.00">depth:2</text>
<polygon fill="none" stroke="black" points="75.75,-498.25 75.75,-519.5 118.75,-519.5 118.75,-498.25 75.75,-498.25"/>
<text xml:space="preserve" text-anchor="start" x="85.25" y="-505" font-family="Linux libertine" font-size="10.00">input:</text>
<polygon fill="none" stroke="black" points="118.75,-498.25 118.75,-519.5 164.75,-519.5 164.75,-498.25 118.75,-498.25"/>
<text xml:space="preserve" text-anchor="start" x="123.75" y="-505" font-family="Linux libertine" font-size="10.00">(1, 512) </text>
<polygon fill="none" stroke="black" points="75.75,-477 75.75,-498.25 118.75,-498.25 118.75,-477 75.75,-477"/>
<text xml:space="preserve" text-anchor="start" x="80.75" y="-483.75" font-family="Linux libertine" font-size="10.00">output: </text>
<polygon fill="none" stroke="black" points="118.75,-477 118.75,-498.25 164.75,-498.25 164.75,-477 118.75,-477"/>
<text xml:space="preserve" text-anchor="start" x="123.75" y="-483.75" font-family="Linux libertine" font-size="10.00">(1, 512) </text>
</g>
<!-- 4&#45;&gt;5 -->
<g id="edge5" class="edge">
<title>4&#45;&gt;5</title>
<path fill="none" stroke="black" d="M98,-555.65C98,-548.07 98,-539.25 98,-530.86"/>
<polygon fill="black" stroke="black" points="101.5,-530.99 98,-520.99 94.5,-530.99 101.5,-530.99"/>
</g>
<!-- 6 -->
<g id="node7" class="node">
<title>6</title>
<polygon fill="#c1ffc1" stroke="none" points="163.62,-441 32.38,-441 32.38,-398.5 163.62,-398.5 163.62,-441"/>
<polygon fill="none" stroke="black" points="32.38,-398.5 32.38,-441 74.62,-441 74.62,-398.5 32.38,-398.5"/>
<text xml:space="preserve" text-anchor="start" x="40.38" y="-421.5" font-family="Linux libertine" font-size="10.00">Linear</text>
<text xml:space="preserve" text-anchor="start" x="37.38" y="-410.25" font-family="Linux libertine" font-size="10.00">depth:2</text>
<polygon fill="none" stroke="black" points="74.62,-419.75 74.62,-441 117.62,-441 117.62,-419.75 74.62,-419.75"/>
<text xml:space="preserve" text-anchor="start" x="84.12" y="-426.5" font-family="Linux libertine" font-size="10.00">input:</text>
<polygon fill="none" stroke="black" points="117.62,-419.75 117.62,-441 163.62,-441 163.62,-419.75 117.62,-419.75"/>
<text xml:space="preserve" text-anchor="start" x="122.62" y="-426.5" font-family="Linux libertine" font-size="10.00">(1, 512) </text>
<polygon fill="none" stroke="black" points="74.62,-398.5 74.62,-419.75 117.62,-419.75 117.62,-398.5 74.62,-398.5"/>
<text xml:space="preserve" text-anchor="start" x="79.62" y="-405.25" font-family="Linux libertine" font-size="10.00">output: </text>
<polygon fill="none" stroke="black" points="117.62,-398.5 117.62,-419.75 163.62,-419.75 163.62,-398.5 117.62,-398.5"/>
<text xml:space="preserve" text-anchor="start" x="122.62" y="-405.25" font-family="Linux libertine" font-size="10.00">(1, 128) </text>
</g>
<!-- 5&#45;&gt;6 -->
<g id="edge6" class="edge">
<title>5&#45;&gt;6</title>
<path fill="none" stroke="black" d="M98,-477.15C98,-469.57 98,-460.75 98,-452.36"/>
<polygon fill="black" stroke="black" points="101.5,-452.49 98,-442.49 94.5,-452.49 101.5,-452.49"/>
</g>
<!-- 7 -->
<g id="node8" class="node">
<title>7</title>
<polygon fill="#c1ffc1" stroke="none" points="177.5,-362.5 18.5,-362.5 18.5,-320 177.5,-320 177.5,-362.5"/>
<polygon fill="none" stroke="black" points="18.5,-320 18.5,-362.5 88.5,-362.5 88.5,-320 18.5,-320"/>
<text xml:space="preserve" text-anchor="start" x="23.5" y="-343" font-family="Linux libertine" font-size="10.00">BatchNorm1d</text>
<text xml:space="preserve" text-anchor="start" x="37.38" y="-331.75" font-family="Linux libertine" font-size="10.00">depth:2</text>
<polygon fill="none" stroke="black" points="88.5,-341.25 88.5,-362.5 131.5,-362.5 131.5,-341.25 88.5,-341.25"/>
<text xml:space="preserve" text-anchor="start" x="98" y="-348" font-family="Linux libertine" font-size="10.00">input:</text>
<polygon fill="none" stroke="black" points="131.5,-341.25 131.5,-362.5 177.5,-362.5 177.5,-341.25 131.5,-341.25"/>
<text xml:space="preserve" text-anchor="start" x="136.5" y="-348" font-family="Linux libertine" font-size="10.00">(1, 128) </text>
<polygon fill="none" stroke="black" points="88.5,-320 88.5,-341.25 131.5,-341.25 131.5,-320 88.5,-320"/>
<text xml:space="preserve" text-anchor="start" x="93.5" y="-326.75" font-family="Linux libertine" font-size="10.00">output: </text>
<polygon fill="none" stroke="black" points="131.5,-320 131.5,-341.25 177.5,-341.25 177.5,-320 131.5,-320"/>
<text xml:space="preserve" text-anchor="start" x="136.5" y="-326.75" font-family="Linux libertine" font-size="10.00">(1, 128) </text>
</g>
<!-- 6&#45;&gt;7 -->
<g id="edge7" class="edge">
<title>6&#45;&gt;7</title>
<path fill="none" stroke="black" d="M98,-398.65C98,-391.07 98,-382.25 98,-373.86"/>
<polygon fill="black" stroke="black" points="101.5,-373.99 98,-363.99 94.5,-373.99 101.5,-373.99"/>
</g>
<!-- 8 -->
<g id="node9" class="node">
<title>8</title>
<polygon fill="#c1ffc1" stroke="none" points="163.62,-284 32.38,-284 32.38,-241.5 163.62,-241.5 163.62,-284"/>
<polygon fill="none" stroke="black" points="32.38,-241.5 32.38,-284 74.62,-284 74.62,-241.5 32.38,-241.5"/>
<text xml:space="preserve" text-anchor="start" x="40.75" y="-264.5" font-family="Linux libertine" font-size="10.00">ReLU</text>
<text xml:space="preserve" text-anchor="start" x="37.38" y="-253.25" font-family="Linux libertine" font-size="10.00">depth:2</text>
<polygon fill="none" stroke="black" points="74.62,-262.75 74.62,-284 117.62,-284 117.62,-262.75 74.62,-262.75"/>
<text xml:space="preserve" text-anchor="start" x="84.12" y="-269.5" font-family="Linux libertine" font-size="10.00">input:</text>
<polygon fill="none" stroke="black" points="117.62,-262.75 117.62,-284 163.62,-284 163.62,-262.75 117.62,-262.75"/>
<text xml:space="preserve" text-anchor="start" x="122.62" y="-269.5" font-family="Linux libertine" font-size="10.00">(1, 128) </text>
<polygon fill="none" stroke="black" points="74.62,-241.5 74.62,-262.75 117.62,-262.75 117.62,-241.5 74.62,-241.5"/>
<text xml:space="preserve" text-anchor="start" x="79.62" y="-248.25" font-family="Linux libertine" font-size="10.00">output: </text>
<polygon fill="none" stroke="black" points="117.62,-241.5 117.62,-262.75 163.62,-262.75 163.62,-241.5 117.62,-241.5"/>
<text xml:space="preserve" text-anchor="start" x="122.62" y="-248.25" font-family="Linux libertine" font-size="10.00">(1, 128) </text>
</g>
<!-- 7&#45;&gt;8 -->
<g id="edge8" class="edge">
<title>7&#45;&gt;8</title>
<path fill="none" stroke="black" d="M98,-320.15C98,-312.57 98,-303.75 98,-295.36"/>
<polygon fill="black" stroke="black" points="101.5,-295.49 98,-285.49 94.5,-295.49 101.5,-295.49"/>
</g>
<!-- 9 -->
<g id="node10" class="node">
<title>9</title>
<polygon fill="#c1ffc1" stroke="none" points="164.75,-205.5 31.25,-205.5 31.25,-163 164.75,-163 164.75,-205.5"/>
<polygon fill="none" stroke="black" points="31.25,-163 31.25,-205.5 75.75,-205.5 75.75,-163 31.25,-163"/>
<text xml:space="preserve" text-anchor="start" x="36.25" y="-186" font-family="Linux libertine" font-size="10.00">Dropout</text>
<text xml:space="preserve" text-anchor="start" x="37.38" y="-174.75" font-family="Linux libertine" font-size="10.00">depth:2</text>
<polygon fill="none" stroke="black" points="75.75,-184.25 75.75,-205.5 118.75,-205.5 118.75,-184.25 75.75,-184.25"/>
<text xml:space="preserve" text-anchor="start" x="85.25" y="-191" font-family="Linux libertine" font-size="10.00">input:</text>
<polygon fill="none" stroke="black" points="118.75,-184.25 118.75,-205.5 164.75,-205.5 164.75,-184.25 118.75,-184.25"/>
<text xml:space="preserve" text-anchor="start" x="123.75" y="-191" font-family="Linux libertine" font-size="10.00">(1, 128) </text>
<polygon fill="none" stroke="black" points="75.75,-163 75.75,-184.25 118.75,-184.25 118.75,-163 75.75,-163"/>
<text xml:space="preserve" text-anchor="start" x="80.75" y="-169.75" font-family="Linux libertine" font-size="10.00">output: </text>
<polygon fill="none" stroke="black" points="118.75,-163 118.75,-184.25 164.75,-184.25 164.75,-163 118.75,-163"/>
<text xml:space="preserve" text-anchor="start" x="123.75" y="-169.75" font-family="Linux libertine" font-size="10.00">(1, 128) </text>
</g>
<!-- 8&#45;&gt;9 -->
<g id="edge9" class="edge">
<title>8&#45;&gt;9</title>
<path fill="none" stroke="black" d="M98,-241.65C98,-234.07 98,-225.25 98,-216.86"/>
<polygon fill="black" stroke="black" points="101.5,-216.99 98,-206.99 94.5,-216.99 101.5,-216.99"/>
</g>
<!-- 10 -->
<g id="node11" class="node">
<title>10</title>
<polygon fill="#c1ffc1" stroke="none" points="163.62,-127 32.38,-127 32.38,-84.5 163.62,-84.5 163.62,-127"/>
<polygon fill="none" stroke="black" points="32.38,-84.5 32.38,-127 74.62,-127 74.62,-84.5 32.38,-84.5"/>
<text xml:space="preserve" text-anchor="start" x="40.38" y="-107.5" font-family="Linux libertine" font-size="10.00">Linear</text>
<text xml:space="preserve" text-anchor="start" x="37.38" y="-96.25" font-family="Linux libertine" font-size="10.00">depth:2</text>
<polygon fill="none" stroke="black" points="74.62,-105.75 74.62,-127 117.62,-127 117.62,-105.75 74.62,-105.75"/>
<text xml:space="preserve" text-anchor="start" x="84.12" y="-112.5" font-family="Linux libertine" font-size="10.00">input:</text>
<polygon fill="none" stroke="black" points="117.62,-105.75 117.62,-127 163.62,-127 163.62,-105.75 117.62,-105.75"/>
<text xml:space="preserve" text-anchor="start" x="122.62" y="-112.5" font-family="Linux libertine" font-size="10.00">(1, 128) </text>
<polygon fill="none" stroke="black" points="74.62,-84.5 74.62,-105.75 117.62,-105.75 117.62,-84.5 74.62,-84.5"/>
<text xml:space="preserve" text-anchor="start" x="79.62" y="-91.25" font-family="Linux libertine" font-size="10.00">output: </text>
<polygon fill="none" stroke="black" points="117.62,-84.5 117.62,-105.75 163.62,-105.75 163.62,-84.5 117.62,-84.5"/>
<text xml:space="preserve" text-anchor="start" x="127.88" y="-91.25" font-family="Linux libertine" font-size="10.00">(1, 8) </text>
</g>
<!-- 9&#45;&gt;10 -->
<g id="edge10" class="edge">
<title>9&#45;&gt;10</title>
<path fill="none" stroke="black" d="M98,-163.15C98,-155.57 98,-146.75 98,-138.36"/>
<polygon fill="black" stroke="black" points="101.5,-138.49 98,-128.49 94.5,-138.49 101.5,-138.49"/>
</g>
<!-- 11 -->
<g id="node12" class="node">
<title>11</title>
<polygon fill="lightyellow" stroke="none" points="147.75,-48.5 48.25,-48.5 48.25,-16 147.75,-16 147.75,-48.5"/>
<polygon fill="none" stroke="black" points="48.25,-16 48.25,-48.5 115.25,-48.5 115.25,-16 48.25,-16"/>
<text xml:space="preserve" text-anchor="start" x="53.25" y="-34" font-family="Linux libertine" font-size="10.00">output&#45;tensor</text>
<text xml:space="preserve" text-anchor="start" x="65.62" y="-22.75" font-family="Linux libertine" font-size="10.00">depth:0</text>
<polygon fill="none" stroke="black" points="115.25,-16 115.25,-48.5 147.75,-48.5 147.75,-16 115.25,-16"/>
<text xml:space="preserve" text-anchor="start" x="120.25" y="-28.38" font-family="Linux libertine" font-size="10.00">(1, 8)</text>
</g>
<!-- 10&#45;&gt;11 -->
<g id="edge11" class="edge">
<title>10&#45;&gt;11</title>
<path fill="none" stroke="black" d="M98,-84.83C98,-77.06 98,-68.03 98,-59.73"/>
<polygon fill="black" stroke="black" points="101.5,-59.81 98,-49.81 94.5,-59.81 101.5,-59.81"/>
</g>
</g>
</svg>
